<?xml version="1.0" encoding="utf-8"?>
<svg version="1.1" id="Capa_1" xmlns="http://www.w3.org/2000/svg" xmlns:xlink="http://www.w3.org/1999/xlink" x="0px" y="0px"
	 viewBox="0 0 66.5 49.2" style="enable-background:new 0 0 66.5 49.2;" xml:space="preserve">
<style type="text/css">
	.st0{fill:#FFFFFF;}
	.st1{fill:url(#SVGID_1_);}
	.st2{fill:url(#SVGID_2_);}
	.st3{fill:url(#SVGID_3_);}
	.st4{fill:url(#SVGID_4_);}
	.st5{fill:url(#SVGID_5_);}
	.st6{fill:url(#SVGID_6_);}
	.st7{fill:url(#SVGID_7_);}
	.st8{fill:url(#SVGID_8_);}
	.st9{fill:url(#SVGID_9_);}
	.st10{fill:url(#SVGID_10_);}
</style>
<g>
	<path class="st0" d="M59,46c0.6,0,0.7,0.3,0.8,0.8h-1.6C58.2,46.3,58.5,46,59,46 M59,48.3c0.7,0,1.1-0.3,1.1-0.9h-0.4
		c0,0.4-0.3,0.6-0.7,0.6c-0.6,0-0.8-0.3-0.9-0.9h2c0,0,0-0.1,0-0.1c0-0.7-0.3-1.2-1.1-1.2c-0.8,0-1.2,0.5-1.2,1.3
		C57.8,47.9,58.2,48.3,59,48.3 M55.6,48c-0.5,0-0.8-0.3-0.8-1c0-0.7,0.3-1,0.8-1c0.5,0,0.8,0.3,0.8,1C56.4,47.7,56.1,48,55.6,48
		 M55.5,48.3c0.4,0,0.7-0.2,0.9-0.5v0.4h0.4v-3.5h-0.4v1.4c-0.2-0.3-0.5-0.5-0.9-0.5c-0.7,0-1.1,0.5-1.1,1.3
		C54.4,47.9,54.8,48.3,55.5,48.3 M52.5,48.3h0.4v-1.7c0-0.3,0.2-0.5,0.4-0.5h0.6v-0.4h-0.4c-0.3,0-0.4,0.1-0.6,0.3v-0.3h-0.4V48.3z
		 M50.1,48c-0.4,0-0.5-0.1-0.5-0.5c0-0.3,0.2-0.5,0.6-0.5H51v0.1C51,47.7,50.6,48,50.1,48 M49.2,46.5h0.4c0-0.3,0.2-0.5,0.7-0.5
		c0.5,0,0.7,0.1,0.7,0.6v0.2h-0.8c-0.7,0-1,0.2-1,0.8c0,0.5,0.3,0.7,0.9,0.7c0.4,0,0.7-0.2,0.9-0.5v0.4h0.4v-1.7
		c0-0.7-0.3-0.9-1-0.9C49.6,45.7,49.2,46,49.2,46.5 M45.2,46.7c0,1.1,0.5,1.7,1.6,1.7c1,0,1.5-0.5,1.5-1.3v-0.4h-1.6V47h1.2v0.1
		c0,0.6-0.4,0.9-1,0.9c-0.8,0-1.1-0.4-1.1-1.3c0-0.9,0.4-1.3,1.1-1.3c0.6,0,1,0.3,1,0.8h0.4c-0.1-0.8-0.6-1.2-1.4-1.2
		C45.8,45,45.2,45.6,45.2,46.7 M43.1,47.1h1.3v-0.3h-1.3V47.1z M41.3,47.8c0,0.3,0.2,0.5,0.5,0.5h0.6V48h-0.5
		c-0.1,0-0.2-0.1-0.2-0.2v-1.7h0.7v-0.3h-0.7v-0.6h-0.3l-0.1,0.6h-0.5v0.3h0.5V47.8z M38,48.3h0.4v-1.5c0-0.5,0.3-0.8,0.8-0.8
		c0.4,0,0.6,0.2,0.6,0.6v1.6h0.4v-1.7c0-0.6-0.3-0.9-0.9-0.9c-0.4,0-0.7,0.2-0.9,0.4v-0.4H38V48.3z M35.6,48c-0.4,0-0.5-0.1-0.5-0.5
		c0-0.3,0.2-0.5,0.6-0.5h0.8v0.1C36.5,47.7,36.1,48,35.6,48 M34.7,46.5h0.4c0-0.3,0.2-0.5,0.7-0.5c0.5,0,0.7,0.1,0.7,0.6v0.2h-0.8
		c-0.7,0-1,0.2-1,0.8c0,0.5,0.3,0.7,0.9,0.7c0.4,0,0.7-0.2,0.9-0.5v0.4h0.4v-1.7c0-0.7-0.3-0.9-1-0.9C35.1,45.7,34.7,46,34.7,46.5
		 M32.6,48.3h0.5l0.9-2.5h-0.4l-0.8,2.2l-0.7-2.2h-0.4L32.6,48.3z M29.3,47l0.6-1.7l0.6,1.7H29.3z M31,48.3h0.4L30.2,45h-0.6
		l-1.2,3.2h0.4l0.3-0.9h1.5L31,48.3z M25,45.8v0.3h0.5v2.2h0.4v-2.2h0.8v-0.3h-0.8v-0.4c0-0.2,0.1-0.2,0.2-0.2h0.5v-0.3H26
		c-0.3,0-0.5,0.2-0.5,0.6v0.4H25z M23.1,48c-0.6,0-0.8-0.3-0.8-1c0-0.7,0.3-1,0.8-1c0.6,0,0.8,0.3,0.8,1C23.9,47.7,23.6,48,23.1,48
		 M23.1,48.3c0.8,0,1.2-0.5,1.2-1.3c0-0.9-0.4-1.3-1.2-1.3c-0.8,0-1.2,0.5-1.2,1.3C21.8,47.9,22.3,48.3,23.1,48.3 M18.7,47.8
		c0,0.3,0.2,0.5,0.5,0.5h0.6V48h-0.5c-0.1,0-0.2-0.1-0.2-0.2v-1.7h0.7v-0.3h-0.7v-0.6h-0.3l-0.1,0.6h-0.5v0.3h0.5V47.8z M17.4,45.8
		H17v2.5h0.4V45.8z M17.2,45.4c0.2,0,0.3-0.1,0.3-0.3c0-0.2-0.1-0.3-0.3-0.3c-0.2,0-0.3,0.1-0.3,0.3C17,45.3,17,45.4,17.2,45.4
		 M14.9,48.3h0.4v-1.7c0-0.3,0.2-0.5,0.4-0.5h0.6v-0.4h-0.4c-0.3,0-0.4,0.1-0.6,0.3v-0.3h-0.4V48.3z M13.7,45.8h-0.4v2.5h0.4V45.8z
		 M13.5,45.4c0.2,0,0.3-0.1,0.3-0.3c0-0.2-0.1-0.3-0.3-0.3s-0.3,0.1-0.3,0.3C13.2,45.3,13.3,45.4,13.5,45.4 M11.1,48
		c-0.5,0-0.8-0.3-0.8-1c0-0.6,0.3-1,0.8-1c0.5,0,0.8,0.3,0.8,1C11.9,47.7,11.6,48,11.1,48 M11.2,48.3c0.7,0,1.1-0.4,1.1-1.3
		c0-0.9-0.4-1.3-1.1-1.3c-0.4,0-0.7,0.2-0.9,0.5v-0.4H9.9v3.4h0.4v-1.4C10.5,48.2,10.8,48.3,11.2,48.3 M6.2,47.2
		c0,0.8,0.4,1.1,1.4,1.1c0.9,0,1.3-0.3,1.3-0.9c0-0.6-0.3-0.8-1.1-0.9l-0.3,0c-0.6-0.1-0.8-0.2-0.8-0.6c0-0.4,0.2-0.5,0.8-0.5
		c0.6,0,0.9,0.2,0.9,0.7h0.4c0-0.7-0.4-1.1-1.3-1.1c-0.9,0-1.2,0.3-1.2,0.9c0,0.6,0.4,0.8,1.1,0.9l0.3,0c0.5,0.1,0.8,0.2,0.8,0.6
		c0,0.4-0.3,0.6-0.9,0.6c-0.7,0-1-0.3-1-0.8H6.2z"/>
	<path class="st0" d="M62.6,40c0,1.3,0.6,1.9,2,1.9c1.2,0,1.9-0.7,1.9-1.8c0-1.1-0.4-1.6-1.4-1.9l-0.5-0.2c-0.6-0.2-0.8-0.4-0.8-1
		c0-0.5,0.3-0.8,0.8-0.8c0.7,0,0.9,0.3,0.9,1h0.9c0-1.3-0.6-1.8-1.9-1.8c-1.2,0-1.8,0.7-1.8,1.7c0,1,0.4,1.5,1.4,1.8l0.6,0.2
		c0.6,0.2,0.8,0.5,0.8,1.1c0,0.6-0.3,0.9-0.9,0.9c-0.7,0-1-0.4-1-1.1H62.6z M58.3,41.9h3.3V41h-2.3v-1.9h2v-0.9h-2v-1.8h2.2v-0.9
		h-3.2V41.9z M54,41.9h3.1V41h-2.1v-5.4H54V41.9z M51.3,41.9h0.9v-6.3h-0.9V41.9z M48.1,39.1c0.5,0,0.8,0.4,0.8,1
		c0,0.6-0.3,0.9-0.8,0.9h-1v-2H48.1z M48,36.4c0.5,0,0.8,0.3,0.8,0.9c0,0.6-0.2,0.9-0.7,0.9h-1v-1.9H48z M46.1,41.9h2
		c1.1,0,1.7-0.6,1.7-1.7c0-0.8-0.3-1.3-0.9-1.5c0.5-0.2,0.7-0.8,0.7-1.5c0-1.1-0.6-1.6-1.6-1.6h-2V41.9z M42.5,36.4
		c0.7,0,1.1,0.4,1.1,1.2V40c0,0.8-0.4,1.2-1.1,1.2c-0.7,0-1.1-0.4-1.1-1.2v-2.4C41.4,36.8,41.8,36.4,42.5,36.4 M42.5,35.5
		c-1.3,0-2,0.8-2,2.1v2.4c0,1.3,0.8,2,2,2s2-0.8,2-2v-2.4C44.5,36.3,43.8,35.5,42.5,35.5 M34,41.9h0.9v-4.8l1.2,3.1h0.8l1.1-3v4.8
		h0.9v-6.3h-1.1l-1.3,3.6l-1.3-3.6H34V41.9z M30.4,36.4c0.7,0,1.1,0.4,1.1,1.2V40c0,0.8-0.4,1.2-1.1,1.2c-0.7,0-1.1-0.4-1.1-1.2
		v-2.4C29.3,36.8,29.7,36.4,30.4,36.4 M30.4,35.5c-1.3,0-2,0.8-2,2.1v2.4c0,1.3,0.8,2,2,2c1.3,0,2-0.8,2-2v-2.4
		C32.4,36.3,31.6,35.5,30.4,35.5 M24.9,41.9h0.9v-5.5h1.6v-0.9h-4v0.9h1.5V41.9z M22.1,40v-4.4h-0.9v4.5c0,0.8-0.3,1-1,1s-1-0.3-1-1
		v-4.5h-0.9V40c0,1.3,0.7,2,1.9,2C21.5,42,22.1,41.3,22.1,40 M14.1,39.3l0.7-2.9l0.7,2.9H14.1z M16,41.9h1l-1.6-6.3h-1.4l-1.5,6.3
		h0.9l0.4-1.7h1.8L16,41.9z M5.1,40c0,1.3,0.6,1.9,2,1.9c1.2,0,1.9-0.7,1.9-1.8c0-1.1-0.4-1.6-1.4-1.9L7,38.1
		c-0.6-0.2-0.8-0.4-0.8-1c0-0.5,0.3-0.8,0.8-0.8c0.7,0,0.9,0.3,0.9,1h0.9c0-1.3-0.6-1.8-1.9-1.8c-1.2,0-1.8,0.7-1.8,1.7
		c0,1,0.4,1.5,1.4,1.8l0.6,0.2C7.8,39.3,8,39.6,8,40.3c0,0.6-0.3,0.9-0.9,0.9c-0.7,0-1-0.4-1-1.1H5.1z M1.8,36.4
		c0.7,0,1.1,0.4,1.1,1.2v2.3c0,0.8-0.4,1.2-1.1,1.2H0.9v-4.6H1.8z M0,41.9h1.8c1.3,0,2-0.7,2-2v-2.3c0-1.3-0.8-2-2-2H0V41.9z"/>
	<g>
		<g>
			<linearGradient id="SVGID_1_" gradientUnits="userSpaceOnUse" x1="39.8768" y1="11.8021" x2="39.8768" y2="32.0975">
				<stop  offset="4.245690e-02" style="stop-color:#808080"/>
				<stop  offset="0.2215" style="stop-color:#B6B6B6"/>
				<stop  offset="0.4122" style="stop-color:#EBEBEB"/>
				<stop  offset="0.5056" style="stop-color:#FFFFFF"/>
				<stop  offset="0.5855" style="stop-color:#FAFAFA"/>
				<stop  offset="0.6807" style="stop-color:#ECECEB"/>
				<stop  offset="0.7837" style="stop-color:#D4D4D3"/>
				<stop  offset="0.8915" style="stop-color:#B3B3B2"/>
				<stop  offset="0.96" style="stop-color:#9A9A99"/>
			</linearGradient>
			<path class="st1" d="M46.1,21.1c-0.1-0.1-0.7-0.6-0.7-0.6l-11.2-8.7c2,1.9,4.8,5,5.7,7.8c0.2,0.7,0.4,1.4,0.4,2.1
				c0,0.6-0.1,1.1-0.4,1.8c-0.4,1.1-1.4,2.4-2.8,3.9c-0.5,0.5-2.6,2.6-3.3,3.3l0,0c-0.1,0.1-0.3,0.3-0.3,0.6c0,0,0,0,0,0
				c0,0,0,0,0,0c0,0,0,0.4,0,0.4c0,0,0,0,0,0c0,0,0,0.1,0,0.1c0,0,0,0,0,0c0,0,0,0.1,0,0.1l0,0.2L46,22.3c0.1-0.1,0.4-0.3,0.4-0.7
				C46.4,21.4,46.2,21.2,46.1,21.1z"/>
			
				<linearGradient id="SVGID_2_" gradientUnits="userSpaceOnUse" x1="-663.0662" y1="69.5856" x2="-662.5755" y2="75.195" gradientTransform="matrix(1 0 0 1 704.748 -47.5059)">
				<stop  offset="0" style="stop-color:#A5A5A4"/>
				<stop  offset="0.2126" style="stop-color:#000000"/>
				<stop  offset="0.8061" style="stop-color:#000000"/>
			</linearGradient>
			<path class="st2" d="M38,28.1c-0.1-0.1,2.4-1.8,3.8-4.8c0.4-0.8,0.6-1.2,1.4-1.3c0.9-0.1,1.9-0.2,2.4-0.2c0.2,0,0.3,0,0.3,0.1
				c0,0.1-0.1,0.2-0.2,0.3c-1.3,0.9-3.2,2.5-5.9,4.6C39.6,26.9,38.1,28.1,38,28.1z"/>
			<linearGradient id="SVGID_3_" gradientUnits="userSpaceOnUse" x1="39.8469" y1="0.2389" x2="39.8469" y2="20.4702">
				<stop  offset="4.000000e-02" style="stop-color:#DFDEDE"/>
				<stop  offset="0.1178" style="stop-color:#DAD9D9"/>
				<stop  offset="0.2103" style="stop-color:#CCCBCB"/>
				<stop  offset="0.25" style="stop-color:#C3C3C3"/>
				<stop  offset="0.4065" style="stop-color:#EBEBEB"/>
				<stop  offset="0.5056" style="stop-color:#FFFFFF"/>
				<stop  offset="0.5488" style="stop-color:#F9F9F9"/>
				<stop  offset="0.6054" style="stop-color:#E9E9E9"/>
				<stop  offset="0.6694" style="stop-color:#CECECE"/>
				<stop  offset="0.7389" style="stop-color:#A8A8A8"/>
				<stop  offset="0.8128" style="stop-color:#777777"/>
				<stop  offset="0.8892" style="stop-color:#3D3D3D"/>
				<stop  offset="0.96" style="stop-color:#000000"/>
			</linearGradient>
			<path class="st3" d="M39.8,12.8c-0.2-0.7-0.4-1.4-0.4-2.1c0-0.6,0.1-1.2,0.4-1.8c0.4-1.1,1.4-2.5,2.8-3.9C43.1,4.5,45,2.6,46,1.7
				l0,0c0.2-0.2,0.3-0.4,0.3-0.6c0-0.2,0-0.6,0-0.7l0-0.2L33.8,10c-0.1,0.1-0.3,0.2-0.4,0.5c0,0.1-0.1,0.3,0,0.4
				c0.1,0.2,0.2,0.3,0.2,0.3c0.1,0.1,0.6,0.5,0.6,0.5l11.2,8.7C43.5,18.6,40.7,15.5,39.8,12.8z"/>
			<path d="M39.2,12.6c-0.2-0.6-0.3-1.3-0.3-1.9c0-0.6,0.2-1.1,0.4-1.7c1-2.4,5.8-6.6,6.8-7.4c0,0,0,0,0,0c-0.9,0.6-4.4,3.6-5.3,4.5
				c-1.5,1.5-2.7,3-2.7,4.6c0,1.8,1.2,3.6,2.6,5.2c0.9,1.1,1.7,2,2.6,2.7c0.9,0.8,1.5,1.4,2.1,1.8C44.7,19.8,40.4,15.9,39.2,12.6z"
				/>
			<linearGradient id="SVGID_4_" gradientUnits="userSpaceOnUse" x1="42.4903" y1="20.4585" x2="42.4903" y2="1.5776">
				<stop  offset="4.000000e-02" style="stop-color:#000000"/>
				<stop  offset="6.136409e-02" style="stop-color:#2D2D2D"/>
				<stop  offset="8.594255e-02" style="stop-color:#585858"/>
				<stop  offset="0.1132" style="stop-color:#808080"/>
				<stop  offset="0.1424" style="stop-color:#A3A3A3"/>
				<stop  offset="0.1742" style="stop-color:#C0C0C0"/>
				<stop  offset="0.2095" style="stop-color:#D7D7D7"/>
				<stop  offset="0.2497" style="stop-color:#E9E9E9"/>
				<stop  offset="0.2978" style="stop-color:#F6F6F6"/>
				<stop  offset="0.3617" style="stop-color:#FDFDFD"/>
				<stop  offset="0.5056" style="stop-color:#FFFFFF"/>
				<stop  offset="0.654" style="stop-color:#FDFDFD"/>
				<stop  offset="0.736" style="stop-color:#F5F5F5"/>
				<stop  offset="0.8017" style="stop-color:#E7E7E7"/>
				<stop  offset="0.8589" style="stop-color:#D4D4D3"/>
				<stop  offset="0.9099" style="stop-color:#BBBBBA"/>
				<stop  offset="0.9568" style="stop-color:#9D9D9C"/>
				<stop  offset="0.9605" style="stop-color:#9A9A99"/>
			</linearGradient>
			<path class="st4" d="M39.8,12.8c-0.2-0.7-0.4-1.4-0.4-2.1c0-0.6,0.1-1.2,0.4-1.8c0.4-1.1,1.4-2.5,2.8-3.9C43.1,4.5,45,2.6,46,1.7
				l0,0c0,0,0.1-0.1,0.1-0.1c-1,0.8-5.8,5-6.8,7.4c-0.2,0.6-0.4,1.1-0.4,1.7c0,0.6,0.1,1.3,0.3,1.9c1.1,3.3,5.4,7.2,6.2,7.8
				C43.5,18.5,40.7,15.5,39.8,12.8z"/>
			<linearGradient id="SVGID_5_" gradientUnits="userSpaceOnUse" x1="37.2339" y1="30.6799" x2="37.2339" y2="11.8048">
				<stop  offset="4.045960e-02" style="stop-color:#706F6F"/>
				<stop  offset="5.568860e-02" style="stop-color:#828181"/>
				<stop  offset="8.848359e-02" style="stop-color:#A3A3A3"/>
				<stop  offset="0.125" style="stop-color:#C0C0C0"/>
				<stop  offset="0.1655" style="stop-color:#D7D7D7"/>
				<stop  offset="0.2116" style="stop-color:#E9E9E9"/>
				<stop  offset="0.2669" style="stop-color:#F6F6F6"/>
				<stop  offset="0.3403" style="stop-color:#FDFDFD"/>
				<stop  offset="0.5056" style="stop-color:#FFFFFF"/>
				<stop  offset="0.5795" style="stop-color:#FCFCFC"/>
				<stop  offset="0.6388" style="stop-color:#F2F2F2"/>
				<stop  offset="0.6931" style="stop-color:#E1E1E1"/>
				<stop  offset="0.7444" style="stop-color:#C9C9C9"/>
				<stop  offset="0.7936" style="stop-color:#AAAAAA"/>
				<stop  offset="0.8412" style="stop-color:#848484"/>
				<stop  offset="0.8876" style="stop-color:#585858"/>
				<stop  offset="0.9319" style="stop-color:#252525"/>
				<stop  offset="0.9605" style="stop-color:#000000"/>
			</linearGradient>
			<path class="st5" d="M40.5,19.7c-1.2-3.3-5.6-7.3-6.3-7.9h0c2,1.9,4.8,5,5.7,7.7c0.2,0.7,0.4,1.4,0.4,2.1c0,0.6-0.1,1.1-0.4,1.8
				c-0.4,1.1-1.4,2.4-2.8,3.9c-0.5,0.5-2.6,2.6-3.3,3.3l0,0c0,0-0.1,0.1-0.1,0.1c1-0.8,5.8-4.9,6.8-7.3c0.2-0.6,0.4-1.1,0.4-1.7
				C40.8,21,40.7,20.4,40.5,19.7z"/>
			<path d="M39,16.4c-0.9-1.1-1.7-2-2.6-2.7c-0.9-0.8-1.6-1.4-2.2-1.9c0.7,0.6,5.1,4.6,6.3,7.9c0.2,0.6,0.3,1.3,0.3,1.9
				c0,0.6-0.2,1.1-0.4,1.7c-1,2.4-5.8,6.6-6.8,7.3c0,0,0,0,0,0c0.9-0.6,4.4-3.6,5.3-4.5c1.5-1.4,2.7-3,2.7-4.6
				C41.6,19.9,40.4,18.1,39,16.4z"/>
			<path d="M28.6,10.7c0,1.7-1.2,3.5-2.8,5.1c-1,1-2,1.9-3,2.7c-1,0.8-1.8,1.3-2.5,1.8c0.8-0.6,5.8-4.5,7.1-7.7
				c0.3-0.6,0.4-1.3,0.4-1.9c0-0.6-0.1-1.3-0.4-1.9c-1.3-3.3-6.3-7.1-7.1-7.7c0.7,0.5,1.5,1,2.5,1.8c0.9,0.8,2,1.7,3,2.7
				C27.4,7.2,28.6,8.9,28.6,10.7z"/>
			<linearGradient id="SVGID_6_" gradientUnits="userSpaceOnUse" x1="24.1372" y1="20.3403" x2="24.1372" y2="1.0358">
				<stop  offset="4.000000e-02" style="stop-color:#000000"/>
				<stop  offset="5.113744e-02" style="stop-color:#121212"/>
				<stop  offset="8.397242e-02" style="stop-color:#444444"/>
				<stop  offset="0.1194" style="stop-color:#707070"/>
				<stop  offset="0.1566" style="stop-color:#979797"/>
				<stop  offset="0.196" style="stop-color:#B7B7B7"/>
				<stop  offset="0.2384" style="stop-color:#D1D1D1"/>
				<stop  offset="0.2847" style="stop-color:#E6E6E6"/>
				<stop  offset="0.3371" style="stop-color:#F4F4F4"/>
				<stop  offset="0.4006" style="stop-color:#FCFCFC"/>
				<stop  offset="0.5061" style="stop-color:#FFFFFF"/>
				<stop  offset="0.6188" style="stop-color:#FDFDFD"/>
				<stop  offset="0.6811" style="stop-color:#F5F5F5"/>
				<stop  offset="0.731" style="stop-color:#E7E7E7"/>
				<stop  offset="0.7744" style="stop-color:#D3D3D3"/>
				<stop  offset="0.8136" style="stop-color:#BABABA"/>
				<stop  offset="0.8498" style="stop-color:#9B9B9B"/>
				<stop  offset="0.8836" style="stop-color:#767676"/>
				<stop  offset="0.9156" style="stop-color:#4A4A4A"/>
				<stop  offset="0.945" style="stop-color:#1B1B1B"/>
				<stop  offset="0.96" style="stop-color:#000000"/>
			</linearGradient>
			<path class="st6" d="M20.4,20.3c0.8-0.6,5.8-4.5,7.1-7.7c0.3-0.6,0.4-1.3,0.4-1.9c0-0.6-0.1-1.3-0.4-1.9
				c-1.3-3.3-6.3-7.1-7.1-7.7c0.8,0.6,5.3,4.5,6.5,7.7c0.2,0.6,0.4,1.3,0.4,1.9c0,0.6-0.1,1.3-0.4,1.9
				C25.7,15.9,21.2,19.7,20.4,20.3z"/>
			<path d="M46.2,21c-0.9-0.9-5.1-4.9-6.2-8.3c-0.2-0.7-0.4-1.4-0.4-2.1c0-0.6,0.1-1.2,0.4-1.7c0.5-1.3,1.7-2.7,2.8-3.9
				c0.5-0.5,2.6-2.6,3.3-3.3c0.2-0.2,0.3-0.4,0.3-0.6c0-0.2,0.1-0.6,0.1-0.8l0-0.4L33.7,9.9c-0.1,0.1-0.4,0.3-0.4,0.6
				c-0.1-0.3-0.3-0.5-0.4-0.6L20.1,0v21.4l12.8-9.9c0.1-0.1,0.3-0.3,0.4-0.6c0.1,0.2,0.2,0.4,0.3,0.4c0.9,0.9,5.1,4.9,6.2,8.3
				c0.2,0.7,0.4,1.4,0.4,2.1c0,0.6-0.1,1.1-0.4,1.7c-0.5,1.3-1.7,2.7-2.8,3.9c-0.5,0.5-2.6,2.6-3.3,3.3c-0.2,0.2-0.3,0.4-0.3,0.6
				c0,0.2-0.1,0.7-0.1,0.9l0,0.4L46,22.4c0.2-0.1,0.5-0.4,0.5-0.7C46.5,21.3,46.2,21.1,46.2,21z M32.8,11.3l-12.6,9.8V0.2L32.8,10
				c0.2,0.1,0.4,0.4,0.4,0.7C33.2,11,32.9,11.2,32.8,11.3z M33.4,10.9c-0.1-0.1,0-0.3,0-0.4c0.1-0.2,0.3-0.4,0.4-0.5l12.6-9.8l0,0.2
				c0,0.1,0,0.5,0,0.7c0,0.2-0.1,0.4-0.3,0.6c-1,0.9-2.9,2.8-3.3,3.3c-1.4,1.5-2.4,2.8-2.8,3.9c-0.2,0.6-0.4,1.2-0.4,1.8
				c0,0.7,0.1,1.4,0.4,2.1c0.9,2.7,3.7,5.8,5.6,7.7l-11.2-8.7c0,0-0.5-0.5-0.6-0.5C33.6,11.2,33.5,11,33.4,10.9z M46,22.3l-12.6,9.8
				l0-0.2c0-0.2,0-0.7,0-0.8c0-0.2,0.2-0.4,0.3-0.6c0.7-0.7,2.8-2.7,3.3-3.3c1.4-1.5,2.4-2.8,2.8-3.9c0.2-0.6,0.4-1.2,0.4-1.8
				c0-0.7-0.1-1.4-0.4-2.1c-0.9-2.7-3.7-5.8-5.7-7.8l11.2,8.7c0,0,0.6,0.5,0.7,0.6c0.1,0.1,0.3,0.3,0.3,0.5
				C46.4,22,46.1,22.2,46,22.3z"/>
			
				<linearGradient id="SVGID_7_" gradientUnits="userSpaceOnUse" x1="867.851" y1="11.1043" x2="868.3439" y2="16.7387" gradientTransform="matrix(-1 0 0 1 905.7817 0)">
				<stop  offset="0" style="stop-color:#A5A5A4"/>
				<stop  offset="0.2126" style="stop-color:#000000"/>
				<stop  offset="0.8061" style="stop-color:#000000"/>
			</linearGradient>
			<path class="st7" d="M41.5,17.1c0,0-1.3-1.3-1.4-1.5c-1.4-1.3-2.6-3.4-2.6-3.4c-0.4-0.8-0.6-1.2-1.4-1.3
				c-0.9-0.1-1.4-0.1-1.9-0.1c-0.2,0-0.3,0-0.3,0.1c0,0.1,0.1,0.2,0.2,0.3c1.3,0.9,3.2,2.5,5.9,4.6C40.1,16,41.4,17.1,41.5,17.1z"/>
		</g>
	</g>
	<linearGradient id="SVGID_8_" gradientUnits="userSpaceOnUse" x1="26.6879" y1="0.243" x2="26.6879" y2="21.1421">
		<stop  offset="4.194670e-02" style="stop-color:#706F6F"/>
		<stop  offset="0.1208" style="stop-color:#828181"/>
		<stop  offset="0.2799" style="stop-color:#B2B1B1"/>
		<stop  offset="0.503" style="stop-color:#FEFEFE"/>
		<stop  offset="0.5056" style="stop-color:#FFFFFF"/>
		<stop  offset="0.5767" style="stop-color:#ECECEC"/>
		<stop  offset="0.7209" style="stop-color:#BCBBBB"/>
		<stop  offset="0.9234" style="stop-color:#6E6D6D"/>
		<stop  offset="0.96" style="stop-color:#5F5E5E"/>
	</linearGradient>
	<path class="st8" d="M20.2,20.5l0.2-0.2c0,0,0,0,0,0c0.7-0.5,1.5-1,2.5-1.8c0.9-0.8,2-1.7,3-2.7c1.6-1.6,2.8-3.4,2.8-5.1
		c0-1.7-1.2-3.5-2.8-5.1c-1-1-2-1.9-3-2.7c-1-0.8-1.8-1.3-2.5-1.8l-0.2-0.2l0-0.6L32.8,10c0.2,0.1,0.4,0.4,0.4,0.7
		c0,0.3-0.3,0.5-0.4,0.7l-12.6,9.8L20.2,20.5z"/>
	<linearGradient id="SVGID_9_" gradientUnits="userSpaceOnUse" x1="28.5321" y1="11.1105" x2="29.0241" y2="16.7347">
		<stop  offset="0" style="stop-color:#A5A5A4"/>
		<stop  offset="0.2126" style="stop-color:#000000"/>
		<stop  offset="0.8061" style="stop-color:#000000"/>
	</linearGradient>
	<path class="st9" d="M24.9,17.1c0,0,0.3-0.3,1.1-1c0.2-0.2,0.3-0.3,0.5-0.5c1.4-1.3,2.6-3.4,2.6-3.4c0.4-0.8,0.6-1.2,1.4-1.3
		c0.9-0.1,1.4-0.1,1.9-0.1c0.2,0,0.3,0,0.3,0.1c0,0.1-0.1,0.2-0.2,0.3c-1.3,0.9-3.2,2.5-5.9,4.6c-0.2,0.1-0.3,0.3-0.5,0.4
		C25.3,16.8,24.9,17.1,24.9,17.1z"/>
	<linearGradient id="SVGID_10_" gradientUnits="userSpaceOnUse" x1="23.7501" y1="0.8811" x2="23.7501" y2="20.496">
		<stop  offset="1.818180e-02" style="stop-color:#F7F7F7"/>
		<stop  offset="0.47" style="stop-color:#E8E8E8"/>
		<stop  offset="0.9617" style="stop-color:#666666"/>
	</linearGradient>
	<path class="st10" d="M26.9,12.6c-1.2,3.3-5.8,7.1-6.5,7.7l-0.2,0.2l0-19.6L20.4,1c0.8,0.6,5.3,4.5,6.5,7.7
		c0.2,0.6,0.4,1.3,0.4,1.9C27.3,11.3,27.2,12,26.9,12.6z"/>
</g>
</svg>
